<svg width="16" height="16" viewBox="0 0 16 16" fill="none" xmlns="http://www.w3.org/2000/svg">
<g clip-path="url(#clip0_124_14)">
<path fill-rule="evenodd" clip-rule="evenodd" d="M1.33331 8.00016C1.33331 4.32016 4.31998 1.3335 7.99998 1.3335C11.68 1.3335 14.6666 4.32016 14.6666 8.00016C14.6666 11.6802 11.68 14.6668 7.99998 14.6668C4.31998 14.6668 1.33331 11.6802 1.33331 8.00016ZM7.33329 5.33366C7.33329 4.96699 7.63329 4.66699 7.99996 4.66699C8.36663 4.66699 8.66663 4.96699 8.66663 5.33366V7.33366H10.6666C11.0333 7.33366 11.3333 7.63366 11.3333 8.00033C11.3333 8.36699 11.0333 8.66699 10.6666 8.66699H8.66663V10.667C8.66663 11.0337 8.36663 11.3337 7.99996 11.3337C7.63329 11.3337 7.33329 11.0337 7.33329 10.667V8.66699H5.33329C4.96663 8.66699 4.66663 8.36699 4.66663 8.00033C4.66663 7.63366 4.96663 7.33366 5.33329 7.33366H7.33329V5.33366Z" fill="#9873FF"/>
</g>
<defs>
<clipPath id="clip0_124_14">
<rect width="16" height="16" fill="white"/>
</clipPath>
</defs>
</svg>
