<svg width="16" height="16" viewBox="0 0 16 16" fill="none" xmlns="http://www.w3.org/2000/svg">
<g clip-path="url(#clip0_121_1688)">
<path d="M8.00001 4.66667C7.63334 4.66667 7.33334 4.96667 7.33334 5.33333V7.33333H5.33334C4.96668 7.33333 4.66668 7.63333 4.66668 8C4.66668 8.36667 4.96668 8.66667 5.33334 8.66667H7.33334V10.6667C7.33334 11.0333 7.63334 11.3333 8.00001 11.3333C8.36668 11.3333 8.66668 11.0333 8.66668 10.6667V8.66667H10.6667C11.0333 8.66667 11.3333 8.36667 11.3333 8C11.3333 7.63333 11.0333 7.33333 10.6667 7.33333H8.66668V5.33333C8.66668 4.96667 8.36668 4.66667 8.00001 4.66667ZM8.00001 1.33333C4.32001 1.33333 1.33334 4.32 1.33334 8C1.33334 11.68 4.32001 14.6667 8.00001 14.6667C11.68 14.6667 14.6667 11.68 14.6667 8C14.6667 4.32 11.68 1.33333 8.00001 1.33333ZM8.00001 13.3333C5.06001 13.3333 2.66668 10.94 2.66668 8C2.66668 5.06 5.06001 2.66667 8.00001 2.66667C10.94 2.66667 13.3333 5.06 13.3333 8C13.3333 10.94 10.94 13.3333 8.00001 13.3333Z" fill="#9873FF"/>
</g>
<defs>
<clipPath id="clip0_121_1688">
<rect width="16" height="16" fill="white"/>
</clipPath>
</defs>
</svg>
