<svg width="16" height="16" viewBox="0 0 16 16" fill="none" xmlns="http://www.w3.org/2000/svg">
<g opacity="0.7">
<path fill-rule="evenodd" clip-rule="evenodd" d="M8 16C12.4183 16 16 12.4183 16 8C16 3.58172 12.4183 0 8 0C3.58172 0 0 3.58172 0 8C0 12.4183 3.58172 16 8 16ZM3 8C3 5.24 5.24 3 8 3C10.76 3 13 5.24 13 8C13 10.76 10.76 13 8 13C5.24 13 3 10.76 3 8ZM9.5 6C9.5 5.17 8.83 4.5 8 4.5C7.17 4.5 6.5 5.17 6.5 6C6.5 6.83 7.17 7.5 8 7.5C8.83 7.5 9.5 6.83 9.5 6ZM5 9.99C5.645 10.96 6.75 11.6 8 11.6C9.25 11.6 10.355 10.96 11 9.99C10.985 8.995 8.995 8.45 8 8.45C7 8.45 5.015 8.995 5 9.99Z" fill="#9873FF"/>
</g>
</svg>
