<svg width="16" height="16" viewBox="0 0 16 16" fill="none" xmlns="http://www.w3.org/2000/svg">
<g opacity="0.7">
<path d="M7.99999 0C3.6 0 0 3.60643 0 8.04819C0 12.0643 2.928 15.3976 6.75199 16V10.3775H4.71999V8.04819H6.75199V6.27309C6.75199 4.25703 7.94399 3.14859 9.77599 3.14859C10.648 3.14859 11.56 3.30121 11.56 3.30121V5.28514H10.552C9.55999 5.28514 9.24799 5.90362 9.24799 6.53815V8.04819H11.472L11.112 10.3775H9.24799V16C11.1331 15.7011 12.8497 14.7354 14.0879 13.2772C15.3261 11.819 16.0043 9.96437 16 8.04819C16 3.60643 12.4 0 7.99999 0Z" fill="#9873FF"/>
</g>
</svg>
