<svg width="16" height="16" viewBox="0 0 16 16" fill="none" xmlns="http://www.w3.org/2000/svg">
<path d="M9.33032 7.99121C9.33032 8.74121 8.74097 9.33008 8.00903 9.33008C7.27686 9.33008 6.66968 8.74121 6.66968 7.99121C6.66968 7.25879 7.25903 6.66992 8.00903 6.66992C8.38745 6.66992 8.72778 6.82715 8.96826 7.08105C9.19287 7.31738 9.33032 7.6377 9.33032 7.99121Z" fill="#9873FF" fill-opacity="0.7"/>
<path fill-rule="evenodd" clip-rule="evenodd" d="M11.2793 8.2959C11.2869 8.93848 11.2981 9.9082 11.116 10.3486C10.991 10.7051 10.7053 10.9736 10.366 11.1162C9.83032 11.3301 8.58032 11.2764 8.00903 11.2764C7.41968 11.2764 6.16968 11.3301 5.65186 11.1162C5.29468 10.9736 5.02686 10.7051 4.88403 10.3486C4.66968 9.83008 4.72314 8.58008 4.72314 7.99121C4.72314 7.6709 4.7063 7.13574 4.72949 6.63379C4.74756 6.24121 4.79004 5.86914 4.88403 5.63379C5.02686 5.29492 5.29468 5.02637 5.65186 4.88379C6.09155 4.70215 7.05957 4.71387 7.70239 4.72168L8.00903 4.72363L8.30664 4.72168C8.93848 4.71387 9.9104 4.70215 10.366 4.88379C10.7053 5.00879 10.9731 5.29492 11.116 5.63379C11.2 5.84375 11.2427 6.16309 11.2639 6.50879C11.2966 7.04492 11.2769 7.64355 11.2769 7.99121L11.2793 8.2959ZM10.0625 7.99121C10.0625 6.86621 9.13403 5.9375 8.00903 5.9375C6.86597 5.9375 5.95532 6.86621 5.95532 7.99121C5.95532 9.13379 6.86597 10.0449 8.00903 10.0449C9.13403 10.0449 10.0625 9.13379 10.0625 7.99121ZM10.3718 6.28711C10.5181 6.2041 10.616 6.04688 10.616 5.86621C10.616 5.72461 10.5557 5.59668 10.459 5.50879C10.3735 5.43066 10.2598 5.38379 10.134 5.38379C9.86597 5.38379 9.65186 5.59863 9.65186 5.86621C9.65186 6.13379 9.86597 6.34863 10.134 6.34863C10.2207 6.34863 10.3018 6.32617 10.3718 6.28711Z" fill="#9873FF" fill-opacity="0.7"/>
<path fill-rule="evenodd" clip-rule="evenodd" d="M8 16C12.4182 16 16 12.418 16 8C16 3.58203 12.4182 0 8 0C3.58179 0 0 3.58203 0 8C0 12.418 3.58179 16 8 16ZM11.9731 9.65137C12.009 8.99121 12.009 7.00879 11.9731 6.34863C11.9375 5.70508 11.7947 5.13379 11.3303 4.66992C10.866 4.20508 10.2947 4.0625 9.65186 4.02637C8.99097 3.99121 7.00903 3.99121 6.34814 4.02637C5.70532 4.0625 5.15186 4.20508 4.66968 4.66992C4.44434 4.89551 4.29468 5.14551 4.19629 5.41699C4.0918 5.70508 4.04517 6.01758 4.02686 6.34863C4.00757 6.7041 3.99854 7.44238 4 8.15137C4.00146 8.75977 4.01025 9.34668 4.02686 9.65137C4.0625 10.2949 4.20532 10.8486 4.66968 11.3301C5.15186 11.7949 5.70532 11.9375 6.34814 11.9736C6.71655 11.9932 7.49536 12.002 8.22705 12C8.80811 11.998 9.35938 11.9893 9.65186 11.9736C10.2947 11.9375 10.866 11.7949 11.3303 11.3301C11.7947 10.8486 11.9375 10.2949 11.9731 9.65137Z" fill="#9873FF" fill-opacity="0.7"/>
</svg>
