<svg width="16" height="16" viewBox="0 0 16 16" fill="none" xmlns="http://www.w3.org/2000/svg">
<path opacity="0.7" fill-rule="evenodd" clip-rule="evenodd" d="M8 16C12.4183 16 16 12.4183 16 8C16 3.58172 12.4183 0 8 0C3.58172 0 0 3.58172 0 8C0 12.4183 3.58172 16 8 16ZM4 5.75C4 5.3375 4.36 5 4.8 5H11.2C11.64 5 12 5.3375 12 5.75V10.25C12 10.6625 11.64 11 11.2 11H4.8C4.36 11 4 10.6625 4 10.25V5.75ZM8.424 8.1275L11.04 6.59375C11.14 6.53375 11.2 6.4325 11.2 6.32375C11.2 6.0725 10.908 5.9225 10.68 6.05375L8 7.625L5.32 6.05375C5.092 5.9225 4.8 6.0725 4.8 6.32375C4.8 6.4325 4.86 6.53375 4.96 6.59375L7.576 8.1275C7.836 8.28125 8.164 8.28125 8.424 8.1275Z" fill="#9873FF"/>
</svg>
