<svg width="16" height="16" viewBox="0 0 16 16" fill="none" xmlns="http://www.w3.org/2000/svg">
<path fill-rule="evenodd" clip-rule="evenodd" d="M8 16C12.4182 16 16 12.418 16 8C16 3.58203 12.4182 0 8 0C3.58179 0 0 3.58203 0 8C0 12.418 3.58179 16 8 16ZM10.6272 11.5234L11.9741 4.72559C12.0947 4.12891 11.7732 3.89453 11.4114 4.04395L3.40991 7.30371C2.86719 7.53809 2.88721 7.8584 3.32959 8.00684L5.36011 8.66797L10.1045 5.51367C10.3257 5.34375 10.5469 5.4502 10.366 5.59961L6.52612 9.26465L6.38525 11.502C6.60645 11.502 6.68677 11.417 6.80762 11.2891L7.79248 10.2656L9.86328 11.8857C10.2454 12.1201 10.5266 11.9922 10.6272 11.5234Z" fill="#9873FF" fill-opacity="0.7"/>
</svg>
