<svg width="16" height="16" viewBox="0 0 16 16" fill="none" xmlns="http://www.w3.org/2000/svg">
<path fill-rule="evenodd" clip-rule="evenodd" d="M8 16C12.4183 16 16 12.4183 16 8C16 3.58172 12.4183 0 8 0C3.58172 0 0 3.58172 0 8C0 12.4183 3.58172 16 8 16ZM11.9824 6.25542V5.98554C12.3738 5.69639 12.726 5.3494 13 4.94458C12.6477 5.0988 12.2368 5.21446 11.8258 5.25301C12.2564 5.00241 12.5695 4.61687 12.726 4.13494C12.3346 4.36627 11.8845 4.53976 11.4344 4.63614C11.0431 4.23133 10.5147 4 9.92759 4C8.79256 4 7.8728 4.90602 7.8728 6.0241C7.8728 6.17831 7.89237 6.33253 7.93151 6.48675C6.22896 6.39036 4.70254 5.58072 3.68493 4.36627C3.50881 4.65542 3.41096 5.00241 3.41096 5.38795C3.41096 6.08193 3.76321 6.6988 4.33072 7.06506C3.99804 7.04578 3.66536 6.96867 3.39139 6.81446V6.83373C3.39139 7.81687 4.09589 8.62651 5.03522 8.81928C4.87867 8.85783 4.68297 8.89639 4.50685 8.89639C4.38527 8.89639 4.27911 8.8812 4.161 8.86431C4.14603 8.86217 4.13087 8.86 4.11546 8.85783C4.36986 9.66747 5.13307 10.2458 6.03327 10.2651C5.32877 10.8048 4.44814 11.1325 3.48924 11.1325C3.31311 11.1325 3.15656 11.1133 3 11.094C3.9002 11.6723 4.97652 12 6.15068 12C9.92759 12 11.9824 8.93494 11.9824 6.25542Z" fill="#9873FF" fill-opacity="0.7"/>
</svg>
